<?xml version="1.0" standalone="no"?>
<!DOCTYPE svg PUBLIC "-//W3C//DTD SVG 20010904//EN"
 "http://www.w3.org/TR/2001/REC-SVG-20010904/DTD/svg10.dtd">
<svg version="1.0" xmlns="http://www.w3.org/2000/svg"
 width="260.000000pt" height="260.000000pt" viewBox="0 0 260.000000 260.000000"
 preserveAspectRatio="xMidYMid meet">
<metadata>
Created by potrace 1.11, written by Peter Selinger 2001-2013
</metadata>
<g transform="translate(0.000000,260.000000) scale(0.100000,-0.100000)"
fill="#000000" stroke="none">
<path d="M2030 2411 c-86 -28 -167 -97 -197 -170 -23 -53 -21 -145 3 -178 36
-48 70 -66 133 -71 48 -3 69 0 113 20 179 83 236 284 107 380 -28 21 -120 32
-159 19z"/>
<path d="M1620 1983 c-57 -10 -268 -80 -460 -153 -350 -133 -457 -160 -613
-155 -51 2 -101 6 -112 9 -74 19 -76 11 -3 -14 121 -41 181 -49 348 -45 137 3
191 8 285 24 22 4 65 6 94 5 116 -4 114 -64 -7 -324 -51 -110 -96 -234 -121
-335 -20 -85 -32 -153 -46 -270 -3 -27 -8 -93 -11 -145 -2 -52 -6 -95 -7 -96
-7 -6 -157 21 -204 37 -19 6 -36 9 -39 7 -6 -7 121 -63 188 -84 61 -19 63 -22
72 -94 7 -50 32 -149 40 -157 3 -3 2 47 -1 110 l-6 116 34 -9 c19 -6 68 -13
109 -17 355 -31 667 44 823 200 82 82 112 142 111 227 0 114 -42 169 -246 322
-153 115 -163 129 -163 238 0 75 3 91 29 138 58 103 179 188 305 212 30 6 57
13 60 16 9 8 -139 2 -179 -8 -19 -5 -44 -11 -55 -13 -35 -8 -159 -73 -190
-100 -151 -130 -224 -231 -232 -324 -9 -96 33 -157 213 -315 57 -50 76 -92 63
-139 -13 -50 -63 -112 -134 -170 -74 -59 -258 -150 -345 -171 -78 -19 -196
-25 -194 -11 1 6 5 42 8 80 17 186 98 424 203 599 104 173 274 367 447 511 57
47 112 102 124 124 24 42 29 100 11 133 -21 39 -107 57 -199 41z"/>
</g>
</svg>
